<svg width="23" height="24" viewBox="0 0 23 24" fill="none" xmlns="http://www.w3.org/2000/svg">
<path id="Vector" d="M9.20016 0.416C9.34983 0.593926 9.44153 0.811675 9.4634 1.04111C9.48526 1.27055 9.4363 1.50112 9.32283 1.70305C8.43633 3.29533 7.97337 5.08014 7.97654 6.89327C7.97654 12.925 13.0029 17.8092 19.1977 17.8092C20.0057 17.8092 20.7924 17.7267 21.5483 17.5692C21.78 17.5201 22.0214 17.5389 22.2423 17.6232C22.4632 17.7075 22.6538 17.8536 22.7903 18.0432C22.9344 18.2404 23.0079 18.4787 22.9993 18.7209C22.9907 18.9632 22.9005 19.1959 22.7428 19.3828C21.5402 20.828 20.023 21.9924 18.3019 22.7912C16.5809 23.59 14.6993 24.0029 12.7944 24C5.72556 24 0 18.4288 0 11.5645C0 6.39825 3.24152 1.96706 7.85694 0.0889866C8.08684 -0.00606957 8.34207 -0.0255794 8.58428 0.0333878C8.82649 0.092355 9.04261 0.226615 9.20016 0.416Z" fill="white"/>
</svg>
