<svg width="29" height="25" viewBox="0 0 29 25" fill="none" xmlns="http://www.w3.org/2000/svg">
<path id="Vector" d="M19.2578 25H6.00391C4.33301 25 2.8932 24.5631 1.83912 23.7366C0.636074 22.7924 0 21.3923 0 19.6875C0 18.0446 0.684785 16.6602 1.98242 15.6842C2.80654 15.0631 3.87478 14.6311 4.9957 14.4565C5.33894 12.3962 6.23727 10.6323 7.6176 9.32254C9.10109 7.91638 11.082 7.13458 13.1406 7.14286C14.9718 7.14286 16.6608 7.73716 18.0253 8.86105C19.0536 9.71564 19.8486 10.81 20.3379 12.0446C21.8774 12.2946 23.26 12.9196 24.2779 13.8348C25.5885 15.0112 26.2812 16.6194 26.2812 18.4821C26.2812 20.3153 25.5376 21.9905 24.1855 23.1987C22.889 24.3605 21.1383 25 19.2578 25ZM21.6112 10.4872C23.1122 10.8739 24.4433 11.5653 25.4996 12.5151C25.6465 12.6475 25.7875 12.784 25.9227 12.9247C27.362 11.8979 28.4982 10.418 29 8.94141C28.0802 9.33594 27 9.49107 25.9329 9.49107C21.7744 9.49107 19.3666 7.11886 19.3666 3.02176C19.3666 1.97042 19.524 0.90625 19.9245 0C17.6356 0.755022 15.3366 2.96819 14.6841 5.476C16.3439 5.73064 17.9014 6.42766 19.1881 7.49163C20.1908 8.32067 21.0147 9.33922 21.6112 10.4872Z" fill="white"/>
</svg>
