<svg width="56" height="56" viewBox="0 0 56 56" fill="none" xmlns="http://www.w3.org/2000/svg">
<path id="Vector" d="M14.5358 41.1116C14.754 41.1891 14.9557 41.3116 15.1294 41.4722C15.3031 41.6328 15.4454 41.8283 15.5481 42.0475C15.6508 42.2667 15.712 42.5053 15.7281 42.7497C15.7442 42.9941 15.7149 43.2395 15.6419 43.4718L13.8917 49.0647C13.8258 49.3055 13.7149 49.5296 13.5658 49.7236C13.4167 49.9177 13.2323 50.0777 13.0238 50.1941C12.8152 50.3105 12.5868 50.3809 12.3521 50.401C12.1174 50.4212 11.8814 50.3907 11.658 50.3114C11.4346 50.2321 11.2286 50.1056 11.0522 49.9395C10.8758 49.7734 10.7327 49.5711 10.6315 49.3447C10.5302 49.1183 10.4728 48.8725 10.4628 48.6219C10.4528 48.3713 10.4904 48.1212 10.5733 47.8865L12.3235 42.2935C12.4697 41.8243 12.785 41.4362 13.1998 41.2146C13.6147 40.9929 14.0952 40.9558 14.5358 41.1116ZM25.0371 41.1116C25.2553 41.1891 25.457 41.3116 25.6307 41.4722C25.8044 41.6328 25.9467 41.8283 26.0494 42.0475C26.1521 42.2667 26.2133 42.5053 26.2294 42.7497C26.2455 42.9941 26.2162 43.2395 26.1432 43.4718L22.6428 54.6577C22.5769 54.8984 22.466 55.1225 22.3169 55.3166C22.1678 55.5107 21.9834 55.6707 21.7749 55.7871C21.5663 55.9034 21.3379 55.9738 21.1032 55.994C20.8685 56.0141 20.6325 55.9836 20.4091 55.9043C20.1857 55.825 19.9797 55.6985 19.8033 55.5324C19.6269 55.3663 19.4838 55.164 19.3826 54.9376C19.2813 54.7112 19.2239 54.4654 19.2139 54.2149C19.2039 53.9643 19.2415 53.7142 19.3244 53.4794L22.8248 42.2935C22.9711 41.8243 23.2863 41.4362 23.7012 41.2146C24.116 40.9929 24.5966 40.9558 25.0371 41.1116ZM35.5384 41.1116C35.7566 41.1891 35.9583 41.3116 36.132 41.4722C36.3057 41.6328 36.448 41.8283 36.5507 42.0475C36.6535 42.2667 36.7146 42.5053 36.7307 42.7497C36.7468 42.9941 36.7175 43.2395 36.6445 43.4718L34.8943 49.0647C34.8284 49.3055 34.7176 49.5296 34.5684 49.7236C34.4193 49.9177 34.2349 50.0777 34.0264 50.1941C33.8179 50.3105 33.5894 50.3809 33.3547 50.401C33.1201 50.4212 32.884 50.3907 32.6606 50.3114C32.4373 50.2321 32.2313 50.1056 32.0549 49.9395C31.8785 49.7734 31.7354 49.5711 31.6341 49.3447C31.5328 49.1183 31.4755 48.8725 31.4655 48.6219C31.4555 48.3713 31.493 48.1212 31.5759 47.8865L33.3261 42.2935C33.4724 41.8243 33.7876 41.4362 34.2025 41.2146C34.6173 40.9929 35.0979 40.9558 35.5384 41.1116ZM46.0397 41.1116C46.2579 41.1891 46.4596 41.3116 46.6333 41.4722C46.807 41.6328 46.9493 41.8283 47.0521 42.0475C47.1548 42.2667 47.2159 42.5053 47.232 42.7497C47.2481 42.9941 47.2189 43.2395 47.1459 43.4718L43.6454 54.6577C43.5795 54.8984 43.4687 55.1225 43.3195 55.3166C43.1704 55.5107 42.986 55.6707 42.7775 55.7871C42.569 55.9034 42.3405 55.9738 42.1058 55.994C41.8712 56.0141 41.6351 55.9836 41.4117 55.9043C41.1884 55.825 40.9824 55.6985 40.806 55.5324C40.6296 55.3663 40.4865 55.164 40.3852 54.9376C40.2839 54.7112 40.2266 54.4654 40.2166 54.2149C40.2066 53.9643 40.2441 53.7142 40.327 53.4794L43.8274 42.2935C43.9737 41.8243 44.2889 41.4362 44.7038 41.2146C45.1187 40.9929 45.5992 40.9558 46.0397 41.1116ZM46.9043 15.0186C46.1774 11.1153 44.2973 7.56208 41.5389 4.87846C38.7804 2.19485 35.2884 0.52158 31.5733 0.103313C27.8581 -0.314955 24.1148 0.543715 20.8907 2.55378C17.6665 4.56384 15.1306 7.61986 13.6536 11.275C11.9974 11.0718 10.3196 11.2308 8.72299 11.7422C7.12641 12.2537 5.64462 13.1069 4.36837 14.2496C3.09211 15.3923 2.04824 16.8005 1.30067 18.3879C0.553094 19.9752 0.117546 21.7085 0.0206915 23.4814C-0.0761628 25.2543 0.167715 27.0296 0.737393 28.6986C1.30707 30.3677 2.19056 31.8953 3.33377 33.188C4.47698 34.4806 5.85586 35.5112 7.38597 36.2164C8.91609 36.9217 10.5652 37.2869 12.2325 37.2897H45.4867C48.1509 37.2929 50.7167 36.2174 52.6643 34.281C54.6119 32.3445 55.7957 29.6919 55.9759 26.8605C56.1562 24.0291 55.3193 21.2306 53.635 19.0318C51.9506 16.8331 49.5446 15.3984 46.9043 15.0186Z" fill="white"/>
</svg>
