<svg width="78" height="56" viewBox="0 0 28 26" fill="none" xmlns="http://www.w3.org/2000/svg">
<path id="Vector" d="M18.5938 25.25H5.79688C4.18359 25.25 2.79344 24.8218 1.7757 24.0119C0.614141 23.0866 0 21.7145 0 20.0437C0 18.5858 0.55125 17.3203 1.59359 16.3846C2.42703 15.6365 3.57164 15.1153 4.82016 14.9168C4.82344 14.9168 4.82453 14.9168 4.82508 14.9141C5.17727 12.7812 6.12828 10.9716 7.57641 9.68156C8.9852 8.43208 10.8044 7.74456 12.6875 7.75C14.3407 7.75 15.8856 8.26352 17.156 9.23586C18.2666 10.098 19.1237 11.2441 19.6366 12.5532C21.245 12.8168 22.6291 13.4889 23.6392 14.4968C24.7734 15.631 25.375 17.1404 25.375 18.8625C25.375 20.659 24.657 22.3007 23.3516 23.4847C22.0998 24.6233 20.4094 25.25 18.5938 25.25ZM20.8633 11.0252C21.7379 11.2486 22.5751 11.5986 23.3483 12.0643C23.7048 11.0163 23.7209 9.88245 23.3943 8.82476C23.0677 7.76707 22.4151 6.83968 21.5299 6.17509C20.6446 5.51051 19.5719 5.14275 18.4651 5.12437C17.3583 5.10598 16.274 5.43792 15.3672 6.07273C15.2633 6.14565 15.1623 6.22221 15.0642 6.30242C16.2089 6.6017 17.2822 7.12657 18.2213 7.84625C19.3236 8.70021 20.2254 9.78531 20.8633 11.0252ZM24.5 9.5H28V11.25H24.5V9.5ZM17.5 0.75H19.25V4.25H17.5V0.75ZM13.9645 6.08914L14.6453 5.40828L12.2052 2.96758L10.9676 4.20516L12.7816 6.01914H12.8144C13.1988 6.01895 13.5829 6.04233 13.9645 6.08914ZM22.1049 5.40773L24.5453 2.9673L25.7827 4.20472L23.3423 6.6452L22.1049 5.40773Z" fill="white"/>
</svg>
